<svg xmlns="http://www.w3.org/2000/svg" viewBox="0 0 720 1040" role="img" aria-labelledby="title desc"><title id="title">The Age of Invisible Control cover</title><desc id="desc">Stylized cover card for the published book The Age of Invisible Control.</desc><defs><linearGradient id="bg" x1="0" x2="1" y1="0" y2="1"><stop stop-color="#090909"/><stop offset="1" stop-color="#171717"/></linearGradient><linearGradient id="red" x1="0" x2="1"><stop stop-color="#f04a3a"/><stop offset="1" stop-color="#8f1511"/></linearGradient></defs><rect width="720" height="1040" rx="34" fill="url(#bg)"/><path d="M110 210c120 0 120 90 240 90s120-90 240-90M110 500c120 0 120 90 240 90s120-90 240-90" fill="none" stroke="#fff" stroke-opacity=".12" stroke-width="5"/><g stroke="#ddd" stroke-opacity=".45" stroke-width="3"><path d="M520 160v500M520 160l-80 120M520 160l88 130"/><circle cx="440" cy="280" r="18" fill="#1f1f1f"/><circle cx="608" cy="290" r="18" fill="#1f1f1f"/></g><text x="70" y="210" fill="#f7fbff" font-family="Inter, Arial, sans-serif" font-size="80" font-weight="900">THE</text><text x="70" y="310" fill="#f7fbff" font-family="Inter, Arial, sans-serif" font-size="80" font-weight="900">AGE OF</text><text x="70" y="410" fill="#f7fbff" font-family="Inter, Arial, sans-serif" font-size="72" font-weight="900">INVISIBLE</text><text x="70" y="510" fill="#f7fbff" font-family="Inter, Arial, sans-serif" font-size="82" font-weight="900">CONTROL</text><text x="70" y="650" fill="url(#red)" font-family="Inter, Arial, sans-serif" font-size="35" font-weight="800">HOW DESIGN, METRICS, AND</text><text x="70" y="695" fill="url(#red)" font-family="Inter, Arial, sans-serif" font-size="35" font-weight="800">CONVENIENCE GOVERN BEHAVIOR</text><text x="70" y="960" fill="#f7fbff" font-family="Inter, Arial, sans-serif" font-size="28" font-weight="700">Eyasu Desalegne Beyene</text></svg>