<svg xmlns="http://www.w3.org/2000/svg" viewBox="0 0 720 1040" role="img" aria-labelledby="title desc"><title id="title">The Exhausted Civilization cover</title><desc id="desc">Stylized cover card for the published book The Exhausted Civilization.</desc><defs><linearGradient id="bg" x1="0" x2="1" y1="0" y2="1"><stop stop-color="#f4ead8"/><stop offset="1" stop-color="#e3d3b9"/></linearGradient></defs><rect width="720" height="1040" rx="34" fill="url(#bg)"/><g fill="#111" opacity=".72"><rect x="110" y="700" width="28" height="120"/><rect x="160" y="645" width="34" height="175"/><rect x="220" y="675" width="30" height="145"/><rect x="278" y="610" width="42" height="210"/><rect x="352" y="690" width="32" height="130"/><rect x="416" y="635" width="42" height="185"/><rect x="502" y="670" width="35" height="150"/></g><path d="M100 820c150 55 380 55 520 0" fill="none" stroke="#111" stroke-opacity=".18" stroke-width="16"/><rect x="425" y="410" width="150" height="235" rx="26" fill="none" stroke="#111" stroke-width="14"/><path d="M530 410c-45 70-10 125-70 210" fill="none" stroke="#a5452b" stroke-width="6"/><text x="70" y="130" fill="#a5452b" font-family="Georgia, serif" font-size="26" letter-spacing="7">FAULT LINES</text><text x="70" y="260" fill="#111" font-family="Georgia, serif" font-size="62">THE</text><text x="70" y="350" fill="#a5452b" font-family="Georgia, serif" font-size="70">EXHAUSTED</text><text x="70" y="440" fill="#111" font-family="Georgia, serif" font-size="64">CIVILIZATION</text><text x="70" y="940" fill="#111" font-family="Inter, Arial, sans-serif" font-size="28" font-weight="700">Eyasu Desalegne Beyene</text></svg>