<svg xmlns="http://www.w3.org/2000/svg" viewBox="0 0 1200 760" role="img" aria-labelledby="title desc">
  <title id="title">Retinal OCT AI abstract visual</title>
  <desc id="desc">Layered retinal OCT-like curves with AI model attention nodes.</desc>
  <defs>
    <linearGradient id="bg" x1="0" x2="1" y1="0" y2="1"><stop stop-color="#081421"/><stop offset="1" stop-color="#160d2d"/></linearGradient>
    <linearGradient id="hot" x1="0" x2="1"><stop stop-color="#38d5ff"/><stop offset=".52" stop-color="#b79cff"/><stop offset="1" stop-color="#f1d48f"/></linearGradient>
  </defs>
  <rect width="1200" height="760" rx="48" fill="url(#bg)"/>
  <g fill="none" stroke-linecap="round">
    <path d="M105 420C230 330 358 534 504 424c132-99 248-64 356-4 88 49 165 39 235-20" stroke="#f7fbff" stroke-opacity=".28" stroke-width="18"/>
    <path d="M110 470C260 392 357 570 520 484c121-64 238-51 352 18 80 48 149 53 220 10" stroke="#38d5ff" stroke-opacity=".74" stroke-width="9"/>
    <path d="M110 370C260 280 360 456 518 362c132-79 262-42 370 18 78 43 147 37 205-2" stroke="#f1d48f" stroke-opacity=".75" stroke-width="7"/>
    <path d="M110 320C256 258 374 368 520 296c150-74 262-34 384 22 72 33 130 35 188 10" stroke="#b79cff" stroke-opacity=".65" stroke-width="5"/>
  </g>
  <g stroke="#ffffff" stroke-opacity=".12">
    <path d="M180 130h840M180 620h840M180 130v490M1020 130v490"/>
  </g>
  <g fill="#f7fbff">
    <circle cx="286" cy="402" r="10" opacity=".9"/><circle cx="492" cy="426" r="12" opacity=".9"/><circle cx="696" cy="392" r="10" opacity=".9"/><circle cx="904" cy="456" r="12" opacity=".9"/>
  </g>
  <g stroke="url(#hot)" stroke-width="3" opacity=".72">
    <path d="M286 402l206 24 204-34 208 64"/>
    <path d="M492 426l-52-142M696 392l60-132M904 456l-28-150"/>
  </g>
  <g fill="none" stroke="url(#hot)" stroke-width="2" opacity=".6">
    <circle cx="440" cy="284" r="32"/><circle cx="756" cy="260" r="34"/><circle cx="876" cy="306" r="28"/>
  </g>
  <text x="78" y="72" fill="#f7fbff" font-family="Inter, Arial, sans-serif" font-size="28" font-weight="800">Retinal OCT AI</text>
  <text x="78" y="700" fill="#f7fbff" fill-opacity=".62" font-family="Inter, Arial, sans-serif" font-size="20">classification · explainability · reliability</text>
</svg>
