<svg xmlns="http://www.w3.org/2000/svg" viewBox="0 0 1200 760" role="img" aria-labelledby="title desc">
  <title id="title">SACS research software abstract interface</title>
  <desc id="desc">Abstract scientific software dashboard with network graph and simulation panels.</desc>
  <defs>
    <linearGradient id="bg" x1="0" x2="1" y1="0" y2="1"><stop stop-color="#07111f"/><stop offset="1" stop-color="#0f243d"/></linearGradient>
    <linearGradient id="accent" x1="0" x2="1"><stop stop-color="#38d5ff"/><stop offset="1" stop-color="#f1d48f"/></linearGradient>
  </defs>
  <rect width="1200" height="760" rx="48" fill="url(#bg)"/>
  <rect x="92" y="108" width="1016" height="540" rx="28" fill="rgba(255,255,255,.065)" stroke="rgba(255,255,255,.18)"/>
  <rect x="92" y="108" width="1016" height="72" rx="28" fill="rgba(255,255,255,.08)"/>
  <circle cx="136" cy="144" r="9" fill="#f1d48f"/><circle cx="166" cy="144" r="9" fill="#38d5ff"/><circle cx="196" cy="144" r="9" fill="#b79cff"/>
  <rect x="132" y="220" width="280" height="360" rx="18" fill="rgba(0,0,0,.18)" stroke="rgba(255,255,255,.11)"/>
  <rect x="460" y="220" width="320" height="360" rx="18" fill="rgba(0,0,0,.18)" stroke="rgba(255,255,255,.11)"/>
  <rect x="828" y="220" width="238" height="360" rx="18" fill="rgba(0,0,0,.18)" stroke="rgba(255,255,255,.11)"/>
  <g stroke="#38d5ff" stroke-opacity=".65" stroke-width="3">
    <path d="M545 400l80-76 78 90-98 76-60-90"/>
    <path d="M625 324l-20 166M545 400l158 14"/>
  </g>
  <g fill="#f7fbff">
    <circle cx="545" cy="400" r="12"/><circle cx="625" cy="324" r="12"/><circle cx="703" cy="414" r="12"/><circle cx="605" cy="490" r="12"/>
  </g>
  <g stroke="url(#accent)" stroke-width="5" stroke-linecap="round">
    <path d="M170 306h198M170 350h160M170 394h206M170 438h132M170 482h180" opacity=".75"/>
    <path d="M874 510c26-84 58-80 90-18 30 59 50 45 72-28" fill="none" opacity=".82"/>
  </g>
  <g fill="#f7fbff" font-family="Inter, Arial, sans-serif">
    <text x="78" y="72" font-size="28" font-weight="800">SACS Research Software</text>
    <text x="132" y="156" font-size="22" font-weight="700" opacity=".85">simulation dashboard</text>
    <text x="78" y="700" font-size="20" opacity=".62">config-driven · reproducible · analytics</text>
  </g>
</svg>
